<?xml version="1.0" encoding="UTF-8"?>
<svg width="22px" height="21px" viewBox="0 0 22 21" version="1.1" xmlns="http://www.w3.org/2000/svg" xmlns:xlink="http://www.w3.org/1999/xlink">
    <!-- Generator: Sketch 54.1 (76490) - https://sketchapp.com -->
    <title>LinkedIn</title>
    <desc>Created with Sketch.</desc>
    <g id="Page-1" stroke="none" stroke-width="1" fill="none" fill-rule="evenodd">
        <g id="Team" transform="translate(-137.000000, -1247.000000)" fill="#EC672C" fill-rule="nonzero">
            <g id="1" transform="translate(136.000000, 770.000000)">
                <g id="linkedin-logo-(1)" transform="translate(1.000000, 477.000000)">
                    <path d="M22,12.5963324 L22,21 L17.4146567,21 L17.4146567,13.1591594 C17.4146567,11.1894763 16.7514362,9.8452446 15.0916939,9.8452446 C13.8246912,9.8452446 13.070697,10.7511582 12.7389872,11.6274772 C12.6180219,11.9407578 12.5868852,12.3768034 12.5868852,12.8153329 L12.5868852,21 L8,21 C8,21 8.0617759,7.72018955 8,6.34430215 L12.5864376,6.34430215 L12.5864376,8.42168866 C12.5771364,8.43722585 12.5650498,8.45397854 12.5562957,8.46904011 L12.5864376,8.46904011 L12.5864376,8.42168866 C13.1957907,7.4245072 14.2840313,6 16.7198519,6 C19.7376692,5.99994715 22,8.09466768 22,12.5963324 Z M2.51523126,0 C0.994611217,0 0,1.07950336 0,2.49908707 C0,3.88773541 0.965835695,5 2.45623421,5 L2.48592554,5 C4.03599591,5 5,3.88794408 5,2.49908707 C4.97079068,1.07950336 4.03599591,0 2.51523126,0 Z M0,21 L5,21 L5,7 L0,7 L0,21 Z" id="LinkedIn"></path>
                </g>
            </g>
        </g>
    </g>
</svg>